<?xml version="1.0" encoding="utf-8"?>
<!-- Generator: Adobe Illustrator 21.0.2, SVG Export Plug-In . SVG Version: 6.00 Build 0)  -->
<svg version="1.1" id="Architecture" xmlns="http://www.w3.org/2000/svg" xmlns:xlink="http://www.w3.org/1999/xlink" x="0px"
	 y="0px" viewBox="0 0 308.4 311.6" style="enable-background:new 0 0 308.4 311.6;" xml:space="preserve">
<style type="text/css">
	.st0{fill:none;stroke:#40BDED;stroke-miterlimit:10;}
	.st1{fill:#FFFFFF;stroke:#FFFFFF;stroke-miterlimit:10;}
	.st2{fill:#FFFFFF;}
	.st3{fill:#00BFEC;}
	.st4{fill:#9DF4E8;}
	.st5{fill:none;stroke:#9DF4E8;stroke-linecap:round;stroke-miterlimit:10;stroke-dasharray:0,3;}
</style>
<g>
	<g>
		<line class="st0" x1="20.4" y1="180.7" x2="44.1" y2="180.7"/>
		<line class="st0" x1="33.7" y1="180.7" x2="52.2" y2="165"/>
		<line class="st0" x1="59.5" y1="180.7" x2="35.8" y2="180.7"/>
		<line class="st0" x1="27.8" y1="165.3" x2="52.2" y2="165.3"/>
		<line class="st0" x1="27.8" y1="195.8" x2="52.2" y2="195.8"/>
		<line class="st0" x1="33.6" y1="180.7" x2="52.2" y2="196.3"/>
		<path class="st0" d="M27.8,196c-0.7-0.7,0.4-31-0.1-31l18.4,15.8L27.8,196"/>
		<polygon class="st0" points="39.4,161 59.8,180.7 40.8,200.7 20.4,180.7 		"/>
		<line class="st0" x1="52.4" y1="196" x2="52.4" y2="165"/>
		<circle class="st0" cx="40.1" cy="180.7" r="19.7"/>
		<circle class="st1" cx="27.8" cy="165.4" r="1.3"/>
		<circle class="st1" cx="52.4" cy="165.4" r="1.3"/>
		<circle class="st1" cx="39.4" cy="160.9" r="1.3"/>
		<circle class="st1" cx="52.4" cy="196" r="1.3"/>
		<circle class="st1" cx="27.8" cy="196" r="1.3"/>
		<circle class="st1" cx="33.6" cy="180.7" r="1.3"/>
		<circle class="st1" cx="20.4" cy="180.7" r="1.3"/>
		<circle class="st1" cx="46.1" cy="180.7" r="1.3"/>
		<circle class="st1" cx="59.8" cy="180.7" r="1.3"/>
		<circle class="st1" cx="40.7" cy="200.4" r="1.3"/>
	</g>
	<g>
		<line class="st0" x1="160.7" y1="75.8" x2="183.4" y2="75.8"/>
		<line class="st0" x1="173.5" y1="75.8" x2="191.2" y2="60.7"/>
		<line class="st0" x1="198.2" y1="75.8" x2="175.5" y2="75.8"/>
		<line class="st0" x1="167.8" y1="61.1" x2="191.2" y2="61.1"/>
		<line class="st0" x1="167.8" y1="90.3" x2="191.2" y2="90.3"/>
		<line class="st0" x1="173.4" y1="75.8" x2="191.2" y2="90.7"/>
		<path class="st0" d="M167.8,90.4c-0.6-0.6,0.4-29.7-0.1-29.7l17.6,15.1L167.8,90.4"/>
		<polygon class="st0" points="178.9,56.9 198.5,75.8 180.3,95 160.7,75.8 		"/>
		<line class="st0" x1="191.4" y1="90.4" x2="191.4" y2="60.7"/>
		<circle class="st0" cx="179.6" cy="75.7" r="18.8"/>
		<circle class="st1" cx="167.8" cy="61.1" r="1.2"/>
		<circle class="st1" cx="191.4" cy="61.1" r="1.2"/>
		<circle class="st1" cx="179" cy="56.8" r="1.2"/>
		<circle class="st1" cx="191.4" cy="90.4" r="1.2"/>
		<circle class="st1" cx="167.8" cy="90.4" r="1.2"/>
		<circle class="st1" cx="173.4" cy="75.8" r="1.2"/>
		<circle class="st1" cx="160.7" cy="75.8" r="1.2"/>
		<circle class="st1" cx="185.4" cy="75.8" r="1.2"/>
		<circle class="st1" cx="198.5" cy="75.8" r="1.2"/>
		<circle class="st1" cx="180.2" cy="94.6" r="1.2"/>
	</g>
	<g>
		<line class="st0" x1="179.8" y1="249.2" x2="203" y2="249.2"/>
		<line class="st0" x1="192.9" y1="249.2" x2="211" y2="233.8"/>
		<line class="st0" x1="218.2" y1="249.2" x2="195" y2="249.2"/>
		<line class="st0" x1="187.1" y1="234.2" x2="211" y2="234.2"/>
		<line class="st0" x1="187.1" y1="264" x2="211" y2="264"/>
		<line class="st0" x1="192.8" y1="249.2" x2="211" y2="264.5"/>
		<path class="st0" d="M187.1,264.2c-0.6-0.7,0.4-30.4-0.1-30.4l18,15.4L187.1,264.2"/>
		<polygon class="st0" points="198.4,229.9 218.5,249.2 199.9,268.8 179.8,249.2 		"/>
		<line class="st0" x1="211.2" y1="264.2" x2="211.2" y2="233.8"/>
		<circle class="st0" cx="199.1" cy="249.2" r="19.3"/>
		<circle class="st1" cx="187.1" cy="234.2" r="1.2"/>
		<circle class="st1" cx="211.2" cy="234.2" r="1.2"/>
		<circle class="st1" cx="198.5" cy="229.8" r="1.2"/>
		<circle class="st1" cx="211.2" cy="264.2" r="1.2"/>
		<circle class="st1" cx="187.1" cy="264.2" r="1.2"/>
		<circle class="st1" cx="192.8" cy="249.2" r="1.2"/>
		<circle class="st1" cx="179.8" cy="249.2" r="1.2"/>
		<circle class="st1" cx="205.1" cy="249.2" r="1.2"/>
		<circle class="st1" cx="218.5" cy="249.2" r="1.2"/>
		<circle class="st1" cx="199.8" cy="268.5" r="1.2"/>
	</g>
	<g>
		<line class="st0" x1="14" y1="114.6" x2="47.2" y2="114.6"/>
		<line class="st0" x1="32.7" y1="114.6" x2="58.5" y2="92.5"/>
		<line class="st0" x1="68.8" y1="114.6" x2="35.6" y2="114.6"/>
		<line class="st0" x1="24.4" y1="93.1" x2="58.5" y2="93.1"/>
		<line class="st0" x1="24.4" y1="135.7" x2="58.5" y2="135.7"/>
		<line class="st0" x1="32.5" y1="114.6" x2="58.5" y2="136.4"/>
		<path class="st0" d="M24.4,135.9c-0.9-0.9,0.5-43.4-0.1-43.4l25.8,22.1L24.4,135.9"/>
		<polygon class="st0" points="40.6,87 69.2,114.6 42.6,142.6 14,114.6 		"/>
		<line class="st0" x1="58.8" y1="135.9" x2="58.8" y2="92.5"/>
		<circle class="st0" cx="41.6" cy="114.5" r="27.6"/>
		<circle class="st1" cx="24.4" cy="93.1" r="1.8"/>
		<circle class="st1" cx="58.8" cy="93.1" r="1.8"/>
		<circle class="st1" cx="40.7" cy="86.9" r="1.8"/>
		<circle class="st1" cx="58.8" cy="135.9" r="1.8"/>
		<circle class="st1" cx="24.4" cy="135.9" r="1.8"/>
		<circle class="st1" cx="32.5" cy="114.6" r="1.8"/>
		<circle class="st1" cx="14" cy="114.6" r="1.8"/>
		<circle class="st1" cx="50.1" cy="114.6" r="1.8"/>
		<circle class="st1" cx="69.2" cy="114.6" r="1.8"/>
		<circle class="st1" cx="42.5" cy="142.1" r="1.8"/>
	</g>
	<g>
		<line class="st0" x1="203.7" y1="112.3" x2="236.9" y2="112.3"/>
		<line class="st0" x1="222.4" y1="112.3" x2="248.2" y2="90.3"/>
		<line class="st0" x1="258.5" y1="112.3" x2="225.4" y2="112.3"/>
		<line class="st0" x1="214.1" y1="90.8" x2="248.2" y2="90.8"/>
		<line class="st0" x1="214.1" y1="133.5" x2="248.2" y2="133.5"/>
		<line class="st0" x1="222.2" y1="112.3" x2="248.2" y2="134.2"/>
		<path class="st0" d="M214.1,133.7c-0.9-0.9,0.5-43.4-0.1-43.4l25.8,22.1L214.1,133.7"/>
		<polygon class="st0" points="230.3,84.7 258.9,112.3 232.4,140.4 203.7,112.3 		"/>
		<line class="st0" x1="248.5" y1="133.7" x2="248.5" y2="90.3"/>
		<circle class="st0" cx="231.3" cy="112.3" r="27.6"/>
		<circle class="st1" cx="214.1" cy="90.8" r="1.8"/>
		<circle class="st1" cx="248.5" cy="90.8" r="1.8"/>
		<circle class="st1" cx="230.4" cy="84.6" r="1.8"/>
		<circle class="st1" cx="248.5" cy="133.7" r="1.8"/>
		<circle class="st1" cx="214.1" cy="133.7" r="1.8"/>
		<circle class="st1" cx="222.2" cy="112.3" r="1.8"/>
		<circle class="st1" cx="203.7" cy="112.3" r="1.8"/>
		<circle class="st1" cx="239.8" cy="112.3" r="1.8"/>
		<circle class="st1" cx="258.9" cy="112.3" r="1.8"/>
		<circle class="st1" cx="232.2" cy="139.9" r="1.8"/>
	</g>
	<g>
		<line class="st0" x1="113.2" y1="281.1" x2="146.4" y2="281.1"/>
		<line class="st0" x1="132" y1="281.1" x2="157.7" y2="259"/>
		<line class="st0" x1="168" y1="281.1" x2="134.9" y2="281.1"/>
		<line class="st0" x1="123.6" y1="259.6" x2="157.7" y2="259.6"/>
		<line class="st0" x1="123.6" y1="302.2" x2="157.7" y2="302.2"/>
		<line class="st0" x1="131.7" y1="281.1" x2="157.7" y2="302.9"/>
		<path class="st0" d="M123.6,302.4c-0.9-0.9,0.5-43.4-0.1-43.4l25.8,22.1L123.6,302.4"/>
		<polygon class="st0" points="139.8,253.5 168.5,281.1 141.9,309.1 113.2,281.1 		"/>
		<line class="st0" x1="158" y1="302.4" x2="158" y2="259"/>
		<circle class="st0" cx="140.8" cy="281" r="27.6"/>
		<circle class="st1" cx="123.6" cy="259.6" r="1.8"/>
		<circle class="st1" cx="158" cy="259.6" r="1.8"/>
		<circle class="st1" cx="139.9" cy="253.4" r="1.8"/>
		<circle class="st1" cx="158" cy="302.4" r="1.8"/>
		<circle class="st1" cx="123.6" cy="302.4" r="1.8"/>
		<circle class="st1" cx="131.7" cy="281.1" r="1.8"/>
		<circle class="st1" cx="113.2" cy="281.1" r="1.8"/>
		<circle class="st1" cx="149.3" cy="281.1" r="1.8"/>
		<circle class="st1" cx="168.5" cy="281.1" r="1.8"/>
		<circle class="st1" cx="141.8" cy="308.6" r="1.8"/>
	</g>
	<g>
		<polygon class="st0" points="63.6,264.2 46.1,219.8 30.6,264.2 49.2,309.1 		"/>
		<line class="st0" x1="30.9" y1="264.2" x2="74.7" y2="228.9"/>
		<line class="st0" x1="20" y1="229.7" x2="74.7" y2="229.7"/>
		<line class="st0" x1="20" y1="298.1" x2="74.7" y2="298.1"/>
		<line class="st0" x1="30.6" y1="264.2" x2="74.7" y2="299.2"/>
		<path class="st0" d="M20,298.4c-1.5-1.5,0.8-69.5-0.2-69.5l43.7,35.3L20,298.4"/>
		<polygon class="st0" points="45.9,220 91.8,264.2 49.2,309.1 3.3,264.2 		"/>
		<line class="st0" x1="75.1" y1="298.4" x2="75.1" y2="228.9"/>
		<circle class="st0" cx="47.5" cy="264.1" r="44.2"/>
		<circle class="st1" cx="46.1" cy="219.8" r="2.8"/>
		<circle class="st1" cx="49" cy="308.3" r="2.8"/>
		<polyline class="st0" points="74.7,228.9 63.6,264.2 75.1,298.4 		"/>
		<polyline class="st0" points="20,229.7 30.6,264.2 20,298.4 		"/>
		<circle class="st1" cx="20" cy="229.7" r="2.8"/>
		<circle class="st1" cx="75.1" cy="229.7" r="2.8"/>
		<circle class="st1" cx="75.1" cy="298.4" r="2.8"/>
		<circle class="st1" cx="20" cy="298.4" r="2.8"/>
		<line class="st0" x1="0.9" y1="264.2" x2="56.5" y2="264.2"/>
		<line class="st0" x1="93.6" y1="264.2" x2="38" y2="264.2"/>
		<circle class="st1" cx="3.3" cy="264.2" r="2.8"/>
		<circle class="st1" cx="91.8" cy="264.2" r="2.8"/>
		<circle class="st1" cx="30.6" cy="264.2" r="2.8"/>
		<circle class="st1" cx="63.6" cy="264.2" r="2.8"/>
	</g>
	<g>
		<polygon class="st0" points="116.1,47.7 98.6,3.3 83.1,47.7 101.7,92.6 		"/>
		<line class="st0" x1="83.4" y1="47.7" x2="127.1" y2="12.4"/>
		<line class="st0" x1="72.5" y1="13.2" x2="127.1" y2="13.2"/>
		<line class="st0" x1="72.5" y1="81.6" x2="127.1" y2="81.6"/>
		<line class="st0" x1="83.1" y1="47.7" x2="127.1" y2="82.7"/>
		<path class="st0" d="M72.5,81.9c-1.5-1.5,0.8-69.5-0.2-69.5l43.7,35.3L72.5,81.9"/>
		<polygon class="st0" points="98.4,3.5 144.3,47.7 101.7,92.6 55.8,47.7 		"/>
		<line class="st0" x1="127.6" y1="81.9" x2="127.6" y2="12.4"/>
		<circle class="st0" cx="100" cy="47.6" r="44.2"/>
		<circle class="st1" cx="98.6" cy="3.3" r="2.8"/>
		<circle class="st1" cx="101.5" cy="91.8" r="2.8"/>
		<polyline class="st0" points="127.6,81.9 116.1,47.7 127.1,12.4 		"/>
		<polyline class="st0" points="72.5,13.2 83.1,47.7 72.5,81.9 		"/>
		<circle class="st1" cx="72.5" cy="13.2" r="2.8"/>
		<circle class="st1" cx="127.6" cy="13.2" r="2.8"/>
		<circle class="st1" cx="127.6" cy="81.9" r="2.8"/>
		<circle class="st1" cx="72.5" cy="81.9" r="2.8"/>
		<line class="st0" x1="53.4" y1="47.7" x2="109" y2="47.7"/>
		<line class="st0" x1="146.1" y1="47.7" x2="90.5" y2="47.7"/>
		<circle class="st1" cx="55.8" cy="47.7" r="2.8"/>
		<circle class="st1" cx="144.3" cy="47.7" r="2.8"/>
		<circle class="st1" cx="83.1" cy="47.7" r="2.8"/>
		<circle class="st1" cx="116.1" cy="47.7" r="2.8"/>
	</g>
	<g>
		<polygon class="st0" points="276.8,193.5 259.3,149.1 243.8,193.5 262.4,238.4 		"/>
		<line class="st0" x1="244.1" y1="193.5" x2="287.9" y2="158.1"/>
		<line class="st0" x1="233.2" y1="159" x2="287.9" y2="159"/>
		<line class="st0" x1="233.2" y1="227.4" x2="287.9" y2="227.4"/>
		<line class="st0" x1="243.8" y1="193.5" x2="287.9" y2="228.5"/>
		<path class="st0" d="M233.2,227.7c-1.5-1.5,0.8-69.5-0.2-69.5l43.7,35.3L233.2,227.7"/>
		<polygon class="st0" points="259.1,149.2 305,193.5 262.4,238.4 216.5,193.5 		"/>
		<line class="st0" x1="288.4" y1="227.7" x2="288.4" y2="158.1"/>
		<circle class="st0" cx="260.8" cy="193.4" r="44.2"/>
		<circle class="st1" cx="259.3" cy="149.1" r="2.8"/>
		<circle class="st1" cx="262.3" cy="237.6" r="2.8"/>
		<polyline class="st0" points="287.9,158.1 276.8,193.5 288.4,227.7 		"/>
		<polyline class="st0" points="233.2,159 243.8,193.5 233.2,227.7 		"/>
		<circle class="st1" cx="233.2" cy="159" r="2.8"/>
		<circle class="st1" cx="288.4" cy="159" r="2.8"/>
		<circle class="st1" cx="288.4" cy="227.7" r="2.8"/>
		<circle class="st1" cx="233.2" cy="227.7" r="2.8"/>
		<line class="st0" x1="214.1" y1="193.5" x2="269.7" y2="193.5"/>
		<line class="st0" x1="306.8" y1="193.5" x2="251.2" y2="193.5"/>
		<circle class="st1" cx="216.5" cy="193.5" r="2.8"/>
		<circle class="st1" cx="305" cy="193.5" r="2.8"/>
		<circle class="st1" cx="243.8" cy="193.5" r="2.8"/>
		<circle class="st1" cx="276.8" cy="193.5" r="2.8"/>
	</g>
	<g>
		<path class="st2" d="M159.4,130.7c-0.2,0.3-0.6,0.4-1,0.2c-6.7-4-14.3-6.1-22.2-6.1c-7.2,0-14.3,1.8-20.5,5.1
			c-0.3,0.2-0.8,0.1-1-0.3l-2.4-4.3c-0.2-0.4-0.1-0.8,0.3-1c7.2-3.9,15.4-5.9,23.6-5.9c9,0,17.8,2.4,25.5,7c0.3,0.2,0.5,0.7,0.2,1
			L159.4,130.7z"/>
		<path class="st3" d="M178.6,156c-1.6-5.5-4.3-10.6-8-15.2c-0.2-0.3-0.2-0.8,0.1-1l3-2.5c0.3-0.3,0.8-0.2,1,0.1
			c4.1,5.1,7.1,10.8,9,17.1c0.1,0.4-0.1,0.8-0.5,0.9l-3.7,1C179.1,156.6,178.7,156.4,178.6,156z"/>
		<path class="st2" d="M168.1,206.1l-3.2-3.8c-0.3-0.3-0.2-0.7,0.1-1c9.3-8.1,14.7-19.8,14.9-32.1c0-0.4,0.3-0.7,0.7-0.7h4.9
			c0.4,0,0.7,0.3,0.7,0.7c-0.2,14.2-6.4,27.6-17.1,36.9C168.8,206.4,168.4,206.4,168.1,206.1z"/>
		<path class="st2" d="M136.3,218.5c-11.3,0-22.4-3.9-31.2-11c-0.3-0.3-0.4-0.7-0.1-1l3.1-3.8c0.3-0.3,0.7-0.3,1-0.1
			c7.7,6.1,17.3,9.5,27.2,9.5c6.8,0,13.4-1.5,19.4-4.5c0.4-0.2,0.8,0,1,0.3l2.3,4.4c0.2,0.4,0,0.8-0.3,1
			C151.7,216.6,144,218.5,136.3,218.5z"/>
		<path class="st3" d="M95.6,195.3c-0.3,0.2-0.8,0.1-1-0.2c-5.1-7.9-7.7-17.1-7.7-26.6c0-13.3,5.2-25.7,14.5-35c0.3-0.3,0.8-0.3,1,0
			l2.7,2.8c0.3,0.3,0.3,0.7,0,1c-8.3,8.3-12.9,19.4-12.9,31.2c0,8.4,2.4,16.6,6.9,23.7c0.2,0.3,0.1,0.8-0.2,1L95.6,195.3z"/>
		<path class="st2" d="M136.3,201c-17.9,0-32.5-14.6-32.5-32.5c0-17.9,14.6-32.5,32.5-32.5c17.9,0,32.5,14.6,32.5,32.5
			C168.8,186.4,154.2,201,136.3,201z M136.3,142.3c-14.4,0-26.2,11.7-26.2,26.2c0,14.4,11.7,26.2,26.2,26.2
			c14.4,0,26.2-11.7,26.2-26.2C162.5,154.1,150.7,142.3,136.3,142.3z"/>
	</g>
	<g>
		<path class="st3" d="M140.5,155.6v25.1h-4.2v-20.3l-5.9,3.8l-1.9-3.2l8.2-5.4H140.5z"/>
	</g>
	<ellipse transform="matrix(0.2301 -0.9732 0.9732 0.2301 -11.9114 194.9399)" class="st4" cx="117.2" cy="105" rx="1.8" ry="1.8"/>
	
		<ellipse transform="matrix(0.2301 -0.9732 0.9732 0.2301 21.8771 242.2635)" class="st4" cx="164.1" cy="107.3" rx="1.8" ry="1.8"/>
	
		<ellipse transform="matrix(0.2301 -0.9732 0.9732 0.2301 19.2032 287.6645)" class="st4" cx="191.4" cy="131.7" rx="1.8" ry="1.8"/>
	
		<ellipse transform="matrix(0.2301 -0.9732 0.9732 0.2301 -16.1795 333.9097)" class="st4" cx="202.9" cy="177.2" rx="1.8" ry="1.8"/>
	
		<ellipse transform="matrix(0.2301 -0.9732 0.9732 0.2301 -72.1939 344.8475)" class="st4" cx="181.8" cy="218.1" rx="1.8" ry="1.8"/>
	
		<ellipse transform="matrix(0.2301 -0.9732 0.9732 0.2301 -119.7648 318.3363)" class="st4" cx="141.3" cy="234.9" rx="1.8" ry="1.8"/>
	
		<ellipse transform="matrix(0.2301 -0.9732 0.9732 0.2301 -141.1494 257.0274)" class="st4" cx="91.9" cy="217.7" rx="1.8" ry="1.8"/>
	
		<ellipse transform="matrix(0.2301 -0.9732 0.9732 0.2301 -119.4577 206.1867)" class="st4" cx="70.6" cy="178.6" rx="1.8" ry="1.8"/>
	
		<ellipse transform="matrix(0.2301 -0.9732 0.9732 0.2301 -69.9618 180.8913)" class="st4" cx="79.3" cy="134.7" rx="1.8" ry="1.8"/>
	<line class="st5" x1="112.8" y1="102.6" x2="105.4" y2="96.2"/>
	<line class="st5" x1="76.8" y1="130.1" x2="71.2" y2="118.2"/>
	<line class="st5" x1="120" y1="100.7" x2="125.8" y2="87.5"/>
	<line class="st5" x1="62.3" y1="136.2" x2="75.6" y2="135.2"/>
	<line class="st5" x1="62.7" y1="180.7" x2="66.2" y2="180"/>
	<line class="st5" x1="87.4" y1="219.2" x2="79.2" y2="225.8"/>
	<line class="st5" x1="92.4" y1="222.3" x2="93.5" y2="258.1"/>
	<line class="st5" x1="141" y1="239.7" x2="140.6" y2="247.8"/>
	<line class="st5" x1="183" y1="222.3" x2="185.1" y2="230.3"/>
	<path class="st5" d="M194.9,226.6c-0.8,0.3-9.3-5.8-9.3-5.8"/>
	<line class="st5" x1="211.6" y1="190.5" x2="204.7" y2="180.2"/>
	<line class="st5" x1="206.3" y1="175.2" x2="227.5" y2="160.9"/>
	<line class="st5" x1="193.6" y1="127" x2="200.8" y2="115.8"/>
	<line class="st5" x1="195.5" y1="133.1" x2="208.2" y2="133.3"/>
	<line class="st5" x1="164.8" y1="103.6" x2="166.7" y2="93.8"/>
	<line class="st5" x1="167.1" y1="105.5" x2="178.8" y2="97.6"/>
	<line class="st5" x1="145.1" y1="238" x2="156.3" y2="254.9"/>
	<line class="st5" x1="137.9" y1="238.6" x2="125.8" y2="254.6"/>
</g>
<g>
</g>
<g>
</g>
<g>
</g>
<g>
</g>
<g>
</g>
<g>
</g>
<g>
</g>
<g>
</g>
<g>
</g>
<g>
</g>
<g>
</g>
<g>
</g>
<g>
</g>
<g>
</g>
<g>
</g>
</svg>
