<svg xmlns="http://www.w3.org/2000/svg" viewBox="0 0 317.81 317.02"><defs><style>.cls-1{fill:#00f587;}</style></defs><title>incentivized_light</title><g id="ring"><path class="cls-1" d="M316.59,154.78a10.15,10.15,0,0,0,1.19-.69c.63-1,1.64-1.81,1.45-2.68s-1.69-1.46-2-2.33c-.14-.44.37-1.07.3-1.5-.12-.73-1.12-1.28-1.38-2-.13-.35.3-.88.13-1.17s-.84-.41-1-.73.2-.91.08-1.35c-.08-.28-.62-.42-.73-.71-.74-2.08.13-5-2-6.24,1.43-1.11,0-1.49-.19-2.12-.32-.89.36-2.14,0-3-.12-.27-.81-.28-.95-.53s.26-.87.1-1.18-.77-.51-1-.79c-.56-.61-.6-1.47-1-2.22-1.12-2-2.82-3.83-3.49-6.2-.18-.64.17-1.45,0-2.1-.3-1.14-1.4-1.84-2.05-2.78s-.37-2.25-.95-3.19c-.15-.26-.66-.39-.77-.67-.24-.59.15-1.33-.2-1.85-.73-1.07-2-1.85-1.77-3.26-1.52.07-.37-1-1.75-1.14a3.78,3.78,0,0,0-2.34-4.56,4,4,0,0,0-1.45-2.89c.79-2-.83-3.13-1.67-4.64-1.66-3-2.79-6.55-3.9-9-.31-.72-1-1.27-1.16-2-.43-1.8-.64-4-1.92-5.42-.16-.18-.78-.18-.95-.35-1.11-1.12-.75-3.25-1.82-4.48-.77-.89-.54-2.07-1.16-3-.46-.72-1.32-1.06-1.83-1.61-1.55-1.67-1.94-3.87-2.77-5.7-.61-1.31-1.65-2.62-2-4.07a11.49,11.49,0,0,1-.63-1.79c0-.22.53-.81.54-1.07,0-.67-.71-1.35-.89-2.26-.24-1.22.35-2.65-.25-3.1s-2.31-.31-3.95,0a4.21,4.21,0,0,0,0-.79c-.19-1.31-1.51-1.27-1.65-2.56a61,61,0,0,1-9.14-3.51c-1.76-.74-3.48-1.88-5.27-2.85-.51-.28-1.28,0-1.8-.28-1.73-.77-3-2.26-4.57-2-1.13.17-1.73-.87-2.78-1.23-1.28-.43-2.89-.27-4.15-.78-.93-2.25-4.11-2-5.81-3.35-3.86-3.15-9.78-2.64-13.77-6-1.51.3-2.59-1-3.61-1.55-.55-.32-1.38,0-2.09-.11-1.85-.32-3.37-2-5.06-2.42-.43-.11-1,.28-1.46.16s-.54-.73-.9-.9a10.86,10.86,0,0,0-2.09-.37c-2.29-.51-4.13-.87-5.53-2.32-1.13.44-2.24-.29-3.18-.81-1.23-.67-2.31-1.73-3.83-1.82-.32,0-.86.33-1.18.29-1.45-.18-3-1.35-4-1.89-.75-.41-1.84,0-2.64-.28-.33-.12-.52-.7-.83-.85-.87-.4-2.17.08-3-.43A21.3,21.3,0,0,0,177.14,10c-.28-.32-.53,1-.81.72A9.69,9.69,0,0,0,173.91,8c-1.51-1.11-3.79-.6-5.51-1.31-.78-.33-1.25-1.6-2.31-.86-1.77-2.47-5.59-2.95-8.44-3a2.27,2.27,0,0,1-.83.46c-1-.83-1.95.06-2.91-.8A75.34,75.34,0,0,1,144.86,6c-1.79.64-3.79,1-5.74,1.57-.55.16-.94.86-1.47,1.05-1.76.64-3.69.46-4.62,1.75-.67.92-1.82.61-2.8,1.09-1.2.6-2.2,1.84-3.42,2.39-2.24-.91-4.2,1.56-6.36,1.81-2.43.31-4.56,1.62-6.72,2.91s-4.3,2.63-6.86,2.92c-.79,1.3-2.41,1.24-3.52,1.57-.6.18-.9,1-1.46,1.45-1.45,1.13-3.68,1.1-5.09,2.05-.36.24-.47.95-.84,1.18s-.89-.1-1.25.05a10.41,10.41,0,0,0-1.63,1.28c-1.87,1.33-3.33,2.44-5.3,2.49-.41,1.12-1.67,1.45-2.66,1.79-1.29.45-2.77.52-3.82,1.57-.22.22-.31.85-.55,1.06-1.08.94-2.95,1.3-4,1.66-.79.27-1.19,1.34-1.92,1.74-.31.16-.85-.1-1.16,0-.86.36-1.36,1.64-2.27,1.9A20.13,20.13,0,0,0,67,43.78c-.42,0,.41,1.09,0,1.07a9.52,9.52,0,0,0-3.57-.11c-1.79.33-2.92,2.31-4.56,3.06-.75.34-2-.2-2.14,1.06-2.95-.47-5.79,2-7.78,3.87a2.15,2.15,0,0,1-.05.34L48.5,53c-1.29-.1-1.46,1.14-2.73,1A63,63,0,0,1,41,62c-1,1.54-2.28,3-3.46,4.54-.33.45-.19,1.22-.48,1.69-1,1.53-2.54,2.55-2.46,4.1.07,1.11-1,1.56-1.46,2.53-.52,1.2-.49,2.75-1.06,3.93-2.29.69-2.16,3.8-3.58,5.37-1.63,1.78-2.32,4.15-3,6.52-.35,1.18-.65,2.38-1.1,3.51a9.23,9.23,0,0,1-.71,1.47,6.64,6.64,0,0,1-1,1.25c.34,1.34-.9,2.17-1.5,3-.33.46,0,1.24-.17,1.89-.38,1.66-2.12,2.9-2.65,4.48-.13.4.21,1,.07,1.42s-.76.46-.94.8a10,10,0,0,0-.47,2c-.61,2.25-1,4.09-2.41,5.64a2.72,2.72,0,0,1,0,1.75,7.23,7.23,0,0,1-.3.85l-.31.71c-.52,1.18-1.44,2.26-1.36,3.66,0,.3.43.77.42,1.08,0,1.35-1,2.88-1.41,3.84-.33.72.2,1.7,0,2.46-.08.32-.64.52-.75.81-.3.83.31,2-.1,2.81a18.11,18.11,0,0,0-1.17,4.67c-.29.27,1.08.44.79.71a9,9,0,0,0-2.48,2.37c-1,1.44-.26,3.53-.82,5.16-.25.74-1.47,1.22-.66,2.17-2.33,1.71-2.46,5.26-2.4,7.9l.09.11a6.28,6.28,0,0,0-1.55.84c-1,.88-.28,2.07-1.29,2.92,1.08,3.36,1.67,6.92,2.46,10.07.48,1.94.68,4.06,1.06,6.13.11.59.79,1.05.94,1.62.52,1.87.2,3.82,1.41,4.89.87.76.47,1.9.89,2.94.51,1.26,1.69,2.37,2.13,3.65-1.09,2.18,1.2,4.34,1.26,6.52.13,4.94,4.35,9.06,4.4,14.27,1.22.95,1,2.59,1.18,3.74.12.63.91,1,1.29,1.65,1,1.61.71,3.86,1.52,5.41.2.39.9.6,1.09,1s-.19.89-.08,1.27A10,10,0,0,0,22.13,226c1.18,2.05,2.11,3.67,2,5.69,1.09.54,1.32,1.86,1.59,2.91.33,1.37.33,2.9,1.31,4.07.21.25.84.4,1,.66.86,1.19,1.14,3.14,1.47,4.24.24.83,1.3,1.32,1.67,2.1.15.33-.14.88,0,1.2.35.9,1.64,1.48,1.89,2.43a10.77,10.77,0,0,0,1,2.38c.45.77,1,1.53,1.44,2.29,0,.43,1.09-.4,1.08,0a9.54,9.54,0,0,0,0,3.7c.43,1.86,2.47,3,3.34,4.69.41.76,0,2.05,1.26,2.16-.25,3.11,2.64,5.9,4.83,7.76a2.76,2.76,0,0,1,1.54.38,5.37,5.37,0,0,0-.32,1.3c-.07,1.32,1.26,1.55,1.17,2.85a95.83,95.83,0,0,1,8.59,5c1.66,1,3.25,2.27,4.93,3.45.48.33,1.27.19,1.76.48,1.65.92,2.78,2.5,4.37,2.4,1.14-.08,1.65,1,2.66,1.45,1.25.51,2.86.43,4.08,1,.79,2.29,3.95,2.19,5.59,3.6a17.09,17.09,0,0,0,6.68,3.1c2.43.7,4.85,1.44,6.81,3.14,1.5-.32,2.56.93,3.57,1.52.55.32,1.36,0,2.06.09,1.82.31,3.34,1.94,5,2.32.42.1,1-.3,1.44-.2s.54.72.9.87a10.47,10.47,0,0,0,2.06.31c2.27.43,4.09.69,5.52,2.08,1.09-.49,2.21.19,3.15.66,1.23.6,2.35,1.59,3.84,1.6.32,0,.83-.38,1.15-.36,1.43.09,3,1.18,4,1.63.76.35,1.81-.14,2.61.08.34.1.55.66.86.78.88.33,2.13-.24,3,.2a18.8,18.8,0,0,0,5,1.23c.3.29.43-1.08.73-.79a9.68,9.68,0,0,0,2.59,2.51c1.58.95,3.77.19,5.52.71.8.24,1.39,1.46,2.34.61,2,2.21,5.82,2.23,8.63,1.91a2.23,2.23,0,0,1,.6-.49,5.28,5.28,0,0,0,.85,1c1,.83,2-.11,3,.73a75.93,75.93,0,0,1,9.37-3.84c1.85-.69,3.93-1.12,5.95-1.7.58-.17,1-.88,1.54-1.09,1.83-.67,3.82-.53,4.81-1.84.7-.94,1.89-.64,2.92-1.14,1.25-.62,2.31-1.89,3.59-2.45,2.3.89,4.39-1.62,6.63-1.9,2.53-.33,4.77-1.67,7-3s4.53-2.69,7.19-3c.85-1.31,2.54-1.27,3.69-1.62.63-.19,1-1,1.55-1.48,1.54-1.15,3.85-1.15,5.34-2.12.38-.25.52-1,.9-1.2s.92.09,1.3-.07a11.34,11.34,0,0,0,1.73-1.31c2-1.37,3.51-2.51,5.57-2.59.45-1.14,1.77-1.49,2.81-1.84,1.35-.48,2.89-.58,4-1.66.24-.23.34-.87.6-1.08,1.14-1,3.09-1.36,4.18-1.76.82-.29,1.26-1.38,2-1.8.32-.17.89.08,1.21-.06.9-.38,1.44-1.69,2.39-2a22.19,22.19,0,0,0,4.65-2.61c.43,0-.42-1.08,0-1.08a10,10,0,0,0,3.72,0c1.87-.4,3-2.45,4.76-3.27.78-.37,2.06.12,2.23-1.16,3.06.32,6-2.24,8.07-4.3a2.41,2.41,0,0,1,.37-1.2l.73.08c1.14-.42,2.43-.4,2.83-1.2s-.38-2.21,0-3.06c.17-.43,1-.6,1.18-1,.36-.65,0-1.72.26-2.46.13-.35.8-.48.87-.82s-.37-.87-.27-1.2.75-.57.94-1-.2-.73-.08-1c.79-2.1,3.43-3.7,2.65-6.11,1.81.13,1-1.11,1.28-1.73.37-.88,1.73-1.36,2-2.2.1-.28-.4-.76-.32-1s.79-.47.89-.8-.22-.91-.21-1.29a10.34,10.34,0,0,1,.79-2.35c.6-2.26.65-4.79,1.85-7,.33-.6,1.15-.94,1.5-1.54.6-1,.32-2.33.53-3.49s1.35-1.9,1.63-3c.08-.3-.18-.75-.05-1,.26-.6,1.07-.85,1.2-1.48.26-1.3-.08-2.8,1.13-3.63-1.1-1.05.48-1-.37-2.09a4,4,0,0,0,1.73-5,4.19,4.19,0,0,0,1.14-3.13c2-.84,1.74-2.84,2.28-4.54,1.11-3.37,3-6.73,4.05-9.31a14.92,14.92,0,0,1,.73-2.3c1-1.6,2.51-3.29,2.72-5.28,0-.25-.39-.7-.38-1,.08-1.62,1.9-2.87,2.09-4.54.14-1.21,1.17-1.88,1.46-3a12.81,12.81,0,0,0-.05-2.5c.18-2.34,1.54-4.2,2.33-6.14a28,28,0,0,1,1.6-4.44A12.33,12.33,0,0,1,314,162c.15-.17,1-.2,1.16-.38.5-.48.49-1.51,1-2.3.73-1.06,2.17-1.67,2.09-2.44A5.18,5.18,0,0,0,316.59,154.78ZM18.14,180.72a3.62,3.62,0,0,0-.26-1.05,2.87,2.87,0,0,0-.35-.59l-3.11-8.41a20.14,20.14,0,0,1-1-4.39,15.51,15.51,0,0,1-.18-1.94c1-.36,1.92-.54,2.2-1.25.34-.87-.59-2.16-.33-3,.13-.44.9-.69,1.08-1.09.3-.68-.21-1.7,0-2.46.09-.36.75-.56.77-.9s-.46-.82-.4-1.16.68-.65.83-1.07c.1-.28-.28-.71-.2-1,.57-2.16,3-4,1.92-6.33,1.81-.08.88-1.21,1.07-1.86.26-.91,1.55-1.54,1.74-2.41.06-.29-.49-.7-.45-1s.72-.56.78-.9-.33-.87-.37-1.25a10.37,10.37,0,0,1,.48-2.41c.3-2.3,0-4.79.91-7.12.24-.63,1-1.07,1.27-1.7.45-1.1,0-2.33.06-3.49a3.71,3.71,0,0,1,.57-1.58l.38-.69a1.94,1.94,0,0,0,.21-.67.63.63,0,0,0,0-.23l.72-1.62a.74.74,0,0,0,.16-.36h0L48.28,69.79l.2-.28c.81-1.2,1.43-2.78,2.5-3.85a4.71,4.71,0,0,0,.44-.54,1.26,1.26,0,0,0,.72-.05,2.15,2.15,0,0,0,.88-.87.93.93,0,0,0,.39,0c.49-.27.75-1,1.23-1.55a4.08,4.08,0,0,0,1.21.07c.74-.26,1.17-1.35,1.9-1.75.35-.19,1,.14,1.24-.08s.31-.91.62-1.11,1,0,1.41-.16c.28-.13.35-.7.64-.86,2.07-1.12,5.2-.72,6.23-3.09,1.33,1.25,1.55-.22,2.18-.54.89-.45,2.27,0,3.07-.44.27-.16.2-.85.45-1s.93.13,1.24-.07.44-.85.71-1.15c.57-.65,1.46-.83,2.2-1.34,2-1.39,3.72-3.35,6.15-4.32.66-.26,1.53,0,2.2-.25,1.16-.44,1.81-1.62,2.75-2.39s2.32-.62,3.28-1.29c.26-.18.37-.7.65-.84.6-.3,1.4,0,1.92-.38,1.08-.83,1.82-2.24,3.32-2.08-.14-1.52,1-.45,1.13-1.85a4.21,4.21,0,0,0,4.72-2.7,4.44,4.44,0,0,0,3-1.62c2.1.7,3.27-1,4.87-1.91a87.7,87.7,0,0,1,9.59-4.14,15.74,15.74,0,0,1,2.18-1.18c1.9-.46,4.2-.58,5.8-1.86.2-.16.24-.78.43-1,1.25-1.12,3.46-.66,4.85-1.67,1-.73,2.22-.45,3.27-1,.8-.43,1.24-1.28,1.87-1.74,1.94-1.42,4.29-1.65,6.32-2.34a29.08,29.08,0,0,1,4.56-1.6,12.84,12.84,0,0,1,2-.43c.23,0,.75.62,1,.66a5.43,5.43,0,0,0,1.82-.45c.71.31,1.77-.09,2.56.16.38.12.57.79.93.85s.89-.4,1.25-.31.66.73,1.11.92c.29.12.76-.22,1.08-.12,2.27.75,4.15,3.35,6.63,2.49,0,1.83,1.24,1,1.91,1.24,1,.35,1.55,1.71,2.46,2,.3.09.77-.42,1.08-.36s.55.78.91.87.94-.24,1.35-.25a11.15,11.15,0,0,1,2.53.74c2.41.56,5.08.54,7.49,1.71.65.32,1.06,1.15,1.71,1.48,1.13.58,2.47.28,3.7.48s2.07,1.33,3.24,1.6c.32.08.78-.19,1.08-.06.64.26,1,1.07,1.62,1.19,1.37.25,2.94-.12,3.87,1.11,1.05-1.12,1.07.48,2.18-.38a4.41,4.41,0,0,0,5.31,1.73,4.68,4.68,0,0,0,3.33,1.17c1,2,3.06,1.76,4.84,2.35a105,105,0,0,1,9.86,4.3,16.68,16.68,0,0,1,2.42.8c1.69,1.09,3.45,2.67,5.54,3,.26,0,.74-.37,1-.34,1.71.15,3,2.06,4.74,2.35,1.26.21,1.95,1.29,3.13,1.64a15.72,15.72,0,0,0,2.63.11c2.45.36,4.36,1.87,6.36,2.81,1.43.67,3.22,1.09,4.57,2a13.71,13.71,0,0,1,1.79,1c.17.17.15,1,.33,1.2.47.55,1.54.66,2.33,1.28,1,.8,1.53,2.19,2.27,2.34,1.09,1.79,2,3.69,2.9,5.42a43.48,43.48,0,0,1,1.93,5c.18.49.9.75,1.12,1.21.74,1.52.65,3.3,1.93,4,.93.52.65,1.61,1.16,2.46.63,1,1.89,1.84,2.43,2.94-.88,2.14,1.57,3.76,1.82,5.74.26,2.24,1.51,4.13,2.74,6.06s2.42,3.92,2.6,6.26c1.26.7,1.08,2.23,1.35,3.24.14.55.94.83,1.34,1.35,1,1.35.85,3.4,1.66,4.73.21.34.89.46,1.09.8s-.17.82-.05,1.16a8.91,8.91,0,0,0,1.13,1.54c1.15,1.77,2.08,3.18,1.93,5,1.06.43,1.26,1.61,1.49,2.54.29,1.22.19,2.6,1.09,3.63.19.22.8.34,1,.58.8,1.05.92,2.82,1.13,3.81.15.75,1.16,1.2,1.44,1.92.12.3-.21.78-.13,1.07.24.82,1.43,1.39,1.56,2.26a17.16,17.16,0,0,0,1.74,4.35c-.08.38,1.13-.27,1.05.11a9,9,0,0,0-.67,3.3c0,1.69,1.78,2.95,2.25,4.56.22.73-.53,1.8.67,2.1-1,2.65.88,5.52,2.35,7.61-.4.45-.61,1-1.43,1.15a27.14,27.14,0,0,1-1.05,4.45c-.48,1.45-1,2.86-1.47,4.21a42.08,42.08,0,0,1-2.36,5c-.23.48.06,1.2-.13,1.69-.62,1.63-2,2.83-1.67,4.3.24,1.06-.75,1.63-1,2.61-.35,1.2-.08,2.71-.53,3.89-2.18.86-1.74,3.84-3,5.43-3,3.57-2.28,9.14-5.54,12.78.33,1.43-.92,2.4-1.49,3.34-.31.51,0,1.29-.09,2-.29,1.73-1.94,3.09-2.36,4.66-.11.4.28,1,.16,1.38s-.72.47-.89.8a9.57,9.57,0,0,0-.36,2c-.5,2.14-.88,3.86-2.32,5.1.43,1.09-.3,2.1-.82,3-.68,1.12-1.75,2.08-1.86,3.5,0,.31.32.83.27,1.13-.2,1.36-1.38,2.77-1.93,3.68-.42.68,0,1.74-.33,2.48-.13.31-.71.45-.86.73-.41.79,0,2.06-.48,2.82a18.74,18.74,0,0,0-1.77,4.57c-.33.24,1,.57.69.81a8.91,8.91,0,0,0-2.77,2.11c-1.14,1.35-.7,3.54-1.45,5.12-.35.72-1.61,1.08-.91,2.12-2.41,1.43-3,4.8-3.25,7.44a1.6,1.6,0,0,0-.73,0c-.75.3-1.18,1.41-1.93,1.84-.36.21-1-.1-1.27.14s-.31.93-.63,1.15-1,0-1.45.22c-.29.14-.36.72-.65.89-2.12,1.21-5.36.9-6.42,3.33-1.37-1.22-1.6.28-2.24.61-.92.48-2.35,0-3.17.52-.28.17-.21.86-.47,1s-1-.11-1.28.11-.46.87-.74,1.18c-.59.67-1.52.87-2.29,1.41-2.07,1.44-3.89,3.46-6.41,4.48-.69.27-1.59,0-2.28.29-1.21.46-1.91,1.66-2.89,2.45s-2.42.66-3.42,1.35c-.28.18-.4.71-.7.85-.63.31-1.46,0-2,.41-1.13.85-1.94,2.28-3.49,2.14.11,1.53-1.09.47-1.22,1.87a4.56,4.56,0,0,0-5,2.78,4.84,4.84,0,0,0-3.18,1.67c-2.17-.68-3.42,1.07-5.11,2a97.33,97.33,0,0,1-10.07,4.27,17.24,17.24,0,0,1-2.3,1.21c-2,.49-4.39.64-6.08,1.95-.21.17-.26.79-.47,1-1.32,1.14-3.62.72-5.08,1.76-1.06.75-2.32.49-3.42,1.08-.84.45-1.31,1.31-2,1.79-2,1.47-4.49,1.75-6.61,2.49a31.68,31.68,0,0,1-4.77,1.73,14.12,14.12,0,0,1-2,.49.45.45,0,0,1-.14-.06,1.47,1.47,0,0,0-.83-.74c-.9-.24-2.09.82-3,.65-.46-.09-.78-.81-1.2-1-.71-.26-1.69.32-2.48.17-.38-.07-.62-.71-1-.71s-.8.52-1.15.48-.7-.63-1.14-.75c-.29-.08-.7.32-1,.26-2.23-.5-4.24-2.84-6.54-1.71-.14-1.79-1.26-.87-1.92-1-.94-.26-1.6-1.54-2.49-1.73-.29-.06-.71.49-1,.46s-.58-.72-.93-.77-.88.33-1.28.38a10.46,10.46,0,0,1-2.46-.54c-2.34-.37-4.93-.09-7.29-1.12-.64-.28-1.07-1.07-1.71-1.36-1.11-.5-2.39-.12-3.59-.23l-.1,0-1.33-.55a5.31,5.31,0,0,0-1.74-.85.73.73,0,0,0-.28,0l-1.84-.76a1,1,0,0,0-.51-.24h-.09L62.25,273.05a9.12,9.12,0,0,1-1.91-1.32,12.55,12.55,0,0,1-1.54-1.25c-.14-.19,0-1-.11-1.21a2.4,2.4,0,0,0-.85-.71,1.59,1.59,0,0,0-.05-1.24c-.33-.56-1.2-.76-1.88-1.09-.25-.57-.48-1-.84-1.17a2.25,2.25,0,0,0,0-.94c-.32-.68-1.44-1-1.89-1.62-.22-.31.06-.93-.19-1.18s-.92-.21-1.14-.5,0-1-.24-1.37-.71-.29-.88-.56c-1.26-1.92-.9-5-3.28-5.94,1.22-1.33-.25-1.5-.55-2.13-.45-.87.05-2.24-.41-3-.15-.26-.85-.2-1-.44s.14-.91-.05-1.21-.83-.45-1.11-.72c-.62-.58-.77-1.47-1.26-2.21-1.34-2-3.14-3.85-4-6.31-.21-.68.11-1.53-.09-2.21a6.08,6.08,0,0,0-1.61-2.23Z" transform="translate(-1.44 -2.41)"/></g><g id="dots"><path class="cls-1" d="M94.81,103.51c0,.11,0,.32,0,.28S94.86,103.48,94.81,103.51Z" transform="translate(-1.44 -2.41)"/><path class="cls-1" d="M103.73,111c-.2,0-.43,0-.47.08A.82.82,0,0,0,103.73,111Z" transform="translate(-1.44 -2.41)"/><path class="cls-1" d="M125.49,86.13l.19-2.35L123,83.63h-.18c-.1-.11-.57-.11-1-.12a3.8,3.8,0,0,0-.72-.1c-.1,0-.09,0-.24,0a4.25,4.25,0,0,0-1-.16c-.13,0-.06.09-.28.07a3,3,0,0,0-.52-.2,4.63,4.63,0,0,0-.64,0,1.91,1.91,0,0,1-.28-.11c-.88,0-.85-.22-1.76-.18a2.72,2.72,0,0,0-1-.1c-.17,0-.19-.07-.36-.08s-.2,0-.28,0a6.31,6.31,0,0,0-1.64-.12c-.08-.09-.45-.09-.6-.16a4.87,4.87,0,0,1-1.12-.07c-.26,0-.41,0-.68,0-.56.09-.83.27-1.36.37a5.47,5.47,0,0,0-1.32-.08.48.48,0,0,1-.16-.1c-.46,0-.72-.11-1.24-.06a2.08,2.08,0,0,0-.76,0c-.23,0-.38-.1-.6-.14s-.12,0-.24,0,0-.05-.16,0c-.56,0-.68-.12-1.36-.07-.52.16-.86.37-1.36.53a2.55,2.55,0,0,1-.72.43s.1,0,.08.07a8.4,8.4,0,0,1-2,.17c-.05,0,0-.08-.12-.07a3.32,3.32,0,0,1-.88,0c-.07-.13.34-.11.36-.22a.72.72,0,0,0-.28,0c-.21.06-.36.19-.56.25l-3.33,1,.54,1.81a.82.82,0,0,1,0,.16s-.07-.15-.11,0c0,.29.11.55.14,1a6.59,6.59,0,0,0,.1,1.12s.12-.19.14,0-.06.2,0,.32a2.05,2.05,0,0,1,.18.52c0,.14,0,.15,0,.28a1.61,1.61,0,0,1,0,.88c.05.1.18,0,.23.08s-.14.2-.14.52c.06,0,.15,0,.17.28a7.21,7.21,0,0,0-.19.84c0,.06.07,0,.06.2s-.27.83-.1,1,.18-.27.26,0,0,.15,0,.28,0,.09.06.16A8.77,8.77,0,0,1,95.7,95v.8a12.44,12.44,0,0,0-.24,1.56c0,.15,0,.15,0,.28s-.06.94-.13,1.32c-.06,0,0-.27-.1-.28s0,.11-.06.08c0,.2.09.16.08.4a2.3,2.3,0,0,1-.06.28,3.51,3.51,0,0,1,0,.8s0-.22-.06-.16a11.76,11.76,0,0,0,.08,1.92c-.06,0-.07-.12-.13-.08,0,.36.08.37.08.68,0,.15-.11,0-.14.08s.05.28,0,.4c-.08-.08-.08-.43-.17-.48,0,.31.07.55.11.8a1.79,1.79,0,0,0,0,.32.37.37,0,0,0,.14.2,14.91,14.91,0,0,1,.3,1.52,2.34,2.34,0,0,1,.23,1c-.06.52-.1,1.07-.19,1.48V108l0,2.48,2.59.09a7.23,7.23,0,0,0,1.18.09c.32.22,1.81,0,2.17.15,0,0-.19.06-.08.08a3.28,3.28,0,0,1,.6-.06c.11.05.39.06.45.13s.18,0,.35,0-.11.07.1.07l1-.14c.07,0,0,0,.09,0,.28,0,.32-.12.59-.14.57,0,.83.2,1.52.15a2,2,0,0,0,.84,0c.16,0,.34.05.38.12a2.23,2.23,0,0,1,.35,0,.74.74,0,0,0,.2.09,1.38,1.38,0,0,1,.64.06c.92,0,1.75.16,2.75.18.18,0,.16-.06.38-.06a3.73,3.73,0,0,0,1.34.17,2.9,2.9,0,0,0,.91.1,3.65,3.65,0,0,1,.91-.11,3.2,3.2,0,0,1,2.08-.51l.39.05c1.45,0,2.26.2,3.81.15.17,0,.42,0,.55.05a23.14,23.14,0,0,0,2.45-.07c.7-.08.11-.3,1-.38,0-.27.36-.54-.35-.78a1.61,1.61,0,0,1,.3,0c0-.23-.71-.45-1.08-.66h-.27c-.34-.13-.86-.3-.92-.47s.13-.19.17-.26a1.94,1.94,0,0,0-.67-.45c-.14,0-.11,0-.27,0s-.14-.06-.17-.1l-.22,0H123v0c.33.35.75,1,1,.37a3.26,3.26,0,0,1,.13-.86,3.18,3.18,0,0,1,.1-.93c0-.15,0-.14,0-.31a.87.87,0,0,0,.09-.26,4.6,4.6,0,0,1,.14-.92c0-.79.17-1.23.22-2.05a2.72,2.72,0,0,0,.18-.89c0-.16,0-.15,0-.31,0,.07.06,0,.09-.08,0-.43.06-.51,0-.9,0-.06.07,0,.07-.18s0-.59.08-.62c0-.21,0-.19,0-.37a4.26,4.26,0,0,0,.07-.88,3.46,3.46,0,0,1-.17-1s0,.17.1.17,0-.19,0-.22.06.25.1.08-.05-.26,0-.54c0-.05.07-.08.13,0,0-.34,0-.49,0-.75,0,.13.06.19.1.08s-.06-.2-.07-.37,0-.07,0-.21a2.8,2.8,0,0,1-.15-1,.64.64,0,0,0-.16-.26,1,1,0,0,0-.05-.36,4,4,0,0,1,.08-1.23,2.78,2.78,0,0,1,.09-.76,4,4,0,0,1,0-.81,1.9,1.9,0,0,1,.13-1c0-.76.08-1.14.12-1.93-.1-.62-.28-.94-.35-1.65a.28.28,0,0,1,0-.17C125.28,86.75,125.45,86.67,125.49,86.13Z" transform="translate(-1.44 -2.41)"/><path class="cls-1" d="M191.39,136.88c0-1.06-.75-2.21-1-3,0-.36.32-.3.42-.53.34-.79-.12-2.12-.07-3.19,0-.31.2-.5.2-.78,0-.56-.32-1.83-.25-2.28,0-.21.25-.27.27-.48a13.74,13.74,0,0,0-.21-1.51c0-1.79.28-3.6-.17-5.43-.19-.36-.75-.47-.8-.91s.6-.87.81-1.4a4.3,4.3,0,0,0,.1-1.26l.09-2.58-2.77-.1a2.48,2.48,0,0,1-.58-.08,11.82,11.82,0,0,0-3.42-.27c-.56,0-1.15.42-1.61.36s-.8-.68-1.29-.9a7.49,7.49,0,0,0-2.65-.54,4,4,0,0,0-1.42-.09c-1,.28-.91,1.44-.71,2.34a2.83,2.83,0,0,0-2.77-.9c-.49.64-1.51.53-2.26.81-1.36-.41-3.28.17-4.9,0-.27,0-.2.44-.52.36a5.61,5.61,0,0,1-2.87-.06l-1.36-.21-.29,1.86a3.05,3.05,0,0,0,.24,2c-1.24,2.56,0,5.59-1.26,8.26.45.76.11,1.54.18,2.26,0,.17.23.3.27.45.3,1.14-.58,2.37-.45,3.42.07.59.74,1.11,1,1.68.38.86-.12,1.84.81,2.39H163v.14a2.47,2.47,0,0,0-.87,1.25l-.18.47,1.06.4a7.69,7.69,0,0,0,3.65.44c.19,0,.33-.26.5-.27s.56.15.75.09.36-.71.65-.89c.13-.08.39,0,.52,0a2,2,0,0,0,.53-.24h1.92a7.92,7.92,0,0,0,3.76.47c.87-.06,2.55.42,2.82,0,1.25.83,1.69.06,2.56-.33a2.25,2.25,0,0,1,.57-.13H188v-6.46c.48.71,1.24,1.37,1.69,2.12-1.34.07-1.37,2-1.51,3.54.4.67.43,1.38.95,1.93a1.11,1.11,0,0,0,1.43.08c.05-.06,0-.36,0-.49s.38-.13.45-.28,0-.7.08-1S191.38,137.14,191.39,136.88Zm-14.94-21.27a6.11,6.11,0,0,1,.13-1.26,2.22,2.22,0,0,0,2.58,1.44,4.2,4.2,0,0,1,2.22.33H176A4.29,4.29,0,0,1,176.45,115.62Z" transform="translate(-1.44 -2.41)"/><path class="cls-1" d="M259.4,163.89c-.8-.76-1.37-.61-2.28-1-.54-.79-.07-1-.14-1.56s-.77-1.32-.75-1.63c0-.6,1.4-.39,2-.73,0-1.07.34-1.5.32-2.59-.25-.32-.76-.5-1-.82a12.66,12.66,0,0,1,.74-3c-.41-.61-.1-1.59-.44-2.24l.1-.17.3-.48L256,148.15c-1.17-.76-2.51-1.45-3.88-1-.31.11-.53.5-.83.54s-.63-.32-1.07-.45a2,2,0,0,0-2.38,1c-.53-.25-1.09-.59-1.6-.18-.41-.85-1.3-.55-1.84-.63-.29,0-.66.12-1,.09-1-.12-2-.41-2.91-.54-1,1.32-3.08-.34-4.46.45-.56,1.38-1.95,0-2.67-.09-.4-.06-.52-.21-.83-.27a3.67,3.67,0,0,0-1.56.17l-3.39.89.52,2c.1.39.22.79.28,1.17s-.14.79-.09,1.13c.1.7.72,1.26.9,1.9-.14.16-.16.41-.27.59.19.29.17.72.54.89a2.25,2.25,0,0,0,1.51-.2v2.7h-.07c-.81.09-2.15,2.13-2.43,2.61a4.81,4.81,0,0,0-.27,3.63c.09.21.31.25.36.48.09.41-.27.62-.36,1-.24.89.43,1.62.27,2.38.28.3.82.56.9,1,.16.77-.85,1.64-.9,2.69l-.11,2.51h2.79c1.09-.05,2.09.17,2.94-.73.6.57,3.12.44,2.78-1a1.46,1.46,0,0,0-.62-.78h8.26c1,.45,2.08.94,2.9.61a3.63,3.63,0,0,0,2.72-.48c.15,0,.3.18.46.15a.74.74,0,0,1,0-.28H254a5.43,5.43,0,0,0,.71.45c.41-.06.65-.21.69-.45H256v-.19c.78.35,1.47,0,1.94.1.12-.7.25-1,.31-1.74C257.6,169,258,168,258,167,259,167,259.9,165.56,259.4,163.89Z" transform="translate(-1.44 -2.41)"/><path class="cls-1" d="M194.92,195.29c.22-1.31-.84-2.59-1.22-3.79,1.25-.5.84-2,.85-3.46,0-.24.13-.47.11-.71,0-.7-.55-1.38-.58-2.1a12.16,12.16,0,0,0,0-1.48c.19-.17.52-.22.64-.46a6.72,6.72,0,0,1-.08-2.07l-.07-.1L189.65,175l-.65.54c-.71.59-1.06,1.7-2,2-.26,0-.32-.37-.54-.45a17.12,17.12,0,0,0-6.37,2,2.29,2.29,0,0,0-.84-.63c-1,1.33-2-.52-2.82-.63-.41-.05-.59.19-.84.27-.7.21-1.7-.12-2.4.09-.44.13-.84.81-1.32.9s-1.43-.32-2-.09c-.12.48-.39.35-.72.54s-.58.55-.78.54-.64-.64-1-.72c-.62-.14-1.32.51-1.68.45s-.56-.7-1-.81a1.57,1.57,0,0,0-.7,0l-2.47.42.3,1.76a15.18,15.18,0,0,1,.39,1.58c-.72.57-.21,1.83.36,2.58.18.23.44.26.54.48.24.54-.2,1.17-.09,1.5s.46.45.63.72c.06.1,0,.24,0,.36a1,1,0,0,0,.35.4v1.36c-.36.31-.79.6-.89.94-.23.79.43,1.25-.09,2-1,.37-.93,1.35-.9,2.16.79.57,1.33,1.82.18,2.28-.29.88.21,1.46.27,2.1a2.76,2.76,0,0,1,1.43,1.58V203h4.93a10.85,10.85,0,0,1,1.22,1.49,6.9,6.9,0,0,0,1.84.86c.33-.19.58-.47,1.09-.28.5-.53.46-1.55.87-2.07h8.46c1.05.33,1.78-.16,2.85.7a1.42,1.42,0,0,1,.61,0,3.55,3.55,0,0,0,3,.76c-.06-.33.13-.56-.18-1a4,4,0,0,0-.41-.45H189v-.49c.75.81,1.55,1.8,2.29,2.68,1,1.19,1.94,2.17,2.69,2a7.17,7.17,0,0,0,.35-3.86c.94-.52.46-2.58.21-4C195.85,199.25,195.55,196.61,194.92,195.29Z" transform="translate(-1.44 -2.41)"/><path class="cls-1" d="M112.64,176.19c-.12,0-.36,0-.33,0S112.67,176.26,112.64,176.19Z" transform="translate(-1.44 -2.41)"/><path class="cls-1" d="M125.11,173.68c.5-.94.37-2.89.38-4.14-.34-.73.11-2.76-.46-3-.2-.09-.38.22-.54.35-.05-.09,0-.3-.09-.35-.14.32-.38-.23-.6-.17a4.6,4.6,0,0,0-.32-1.34c0-.22,0-.51-.13-.65,0,.32,0,.8-.23.77a1.85,1.85,0,0,1-.1-.46c-.08-.07-.09,0-.16,0a5.55,5.55,0,0,1-.24-1.73.32.32,0,0,1,.21,0c.07-.41.36-.23.43-.58a3.45,3.45,0,0,0,0-.66c-.15-1.68-.89-3.34-.65-5.39.31-.49-.09-1.49,0-2.07.14-.24.29-.08.53-.16s.36-.42.56-.45.48.22.7,0,.16-.4.28-.54l.12-.13L121,149.41a.21.21,0,0,1-.07-.13c-2.08-.77-3.78.62-5.8.44-.56,0-1.1-.07-1.66-.08s-1.07.08-1.59.07-1.22-.26-1.88-.26-1.17.2-1.75.22a19.28,19.28,0,0,1-2.18-.17,18.59,18.59,0,0,0-3.71.23.47.47,0,0,1-.27.12,8.38,8.38,0,0,0-2.72,0c-.89.74-2,0-3.37-.11l-3.06-.29-.35,3.69a3.74,3.74,0,0,0,0,.48.36.36,0,0,1,.12.23c.1-.27.18.16.22,0s.05-.48.09-.72l.28-1.8-.09,1.8a1.62,1.62,0,0,0,0,.43.56.56,0,0,0,.17-.43l.27-2.83,2.33.23c.19,0,.4,0,.54,0a9.36,9.36,0,0,0,1.12.3c1.06.1,1.9-.46,3-.19a7.89,7.89,0,0,0-2.21.41c.19.11.6-.1.83,0,0,.07-.21,0-.16.17s.58-.07.68.06c-.2.12-.5.15-.51.34-.64,0-.86.39-1.6.37a2.42,2.42,0,0,0-1-.24c-.23,0-.44,0-.64,0H94.59v1.42c0,1,.19,1.77.17,2.72,0,.65-.17,1.21-.13,1.88,0,.15.1.18.09.34a42.67,42.67,0,0,1,.14,5.79c0,.11-.12.14-.15.26,0,.75,0,1.33.08,2.12a2.9,2.9,0,0,1,.12.31c.1,1.48.36,3,.42,4.44,0,.46,0,.92,0,1.4,0,.69.07,1.43.11,2.12l0,.49,0,.6.54,0c1.33-.07,2.64-.17,3.94-.22.3,0,.59,0,.88,0s.42-.07.64-.09c.73,0,1.69.06,2.49,0l.3,0c.55,0,1,.13,1.49.14.11,0,.18,0,.3,0,.62,0,1.38.14,2,.09.14,0,.11.15.28.14,1.85.09,3.65-.13,5.48,0,.15,0,.18.12.35.13a.61.61,0,0,1,.42,0c0,.05-.13.05-.19.08s.25,0,.26.17c-.42.09-1.18,0-1.48.12a11.85,11.85,0,0,1,2.32.15c-.24.08-.79,0-1.14,0,.08.09.37,0,.43.12-.16.06-.43,0-.66.05s-.16.13-.32.16c-.38.06-.88,0-1.24,0a5.36,5.36,0,0,1-1,.15c-.09,0,0,.13-.15.11s-1,0-1,.2h.61c.15,0,.22.13.39.15,1.29.1,2.66,0,4,0,.18,0,.28.11.46.13,2,.07,3.79-.08,5.73-.13.34-.17.27-.63-.34-.87,0-.15-.32-.33-.19-.44a1.67,1.67,0,0,1-.51-1H121v-1.85c.07.34.13.73.16,1a5.14,5.14,0,0,0,.11,1c.2.63.44.38.57.52s.45.62.71.45c.33.37.74.18,1.09.87.08.05.11-.09.2,0,.44,1,.92.68,1.26.39C125.25,175.89,124.88,175,125.11,173.68ZM96,150.32l-2.54-.12.07-.44,2.47.38a3.23,3.23,0,0,1,1.19.35C96.83,150.45,96.39,150.34,96,150.32Zm1.34.19c.61.1,1.42-.31,1.62.06A2.15,2.15,0,0,1,97.34,150.51Zm-2.19,3.77c.1.09.1.47.09.61A.74.74,0,0,1,95.15,154.28Zm0,8a1.65,1.65,0,0,0,0-1.21c0-.07.08.07.08-.11s-.11-.09-.12-.19a17.24,17.24,0,0,1,0-3c.17.14,0,.79.11,1,.09,0,.09-.17.15-.07a20,20,0,0,1,.17,2.77c0,.06-.14,0-.18.07a1.9,1.9,0,0,0,0,.49c0-.13,0-.35.18-.33a5.59,5.59,0,0,1-.07,1.28c-.18-.1,0-.49-.08-.8a13,13,0,0,0-.15,1.32C95.15,163.22,95.29,162.49,95.13,162.25Zm.52,9.36a9.75,9.75,0,0,0-.12-1.55s0,.09-.08.07c0-.24-.08-.3-.06-.53s.06-.06.1-.07c0-.37,0-.82-.18-.8,0-.17-.09-.38,0-.49s.06,0,.1,0c0-.8-.15-1.53-.15-2.39a8.36,8.36,0,0,1,.25,1.52c0,.17-.09.42.07.49.08-.38-.16-.82,0-1.17a11.14,11.14,0,0,1,.26,2.13c-.07.18-.21.26-.11.52.09,0,.05-.17.18-.11,0,.23.07.44,0,.61-.13,0,0-.32-.14-.38A14.78,14.78,0,0,1,95.65,171.61Zm.22-1.28c-.08,0-.12-.21-.07-.3S95.93,170.24,95.88,170.33Zm19.44,6.19c-.1-.09.31-.1.32,0S115.41,176.53,115.31,176.52ZM121,171v-.88A1,1,0,0,1,121,171Zm1.2-12a2,2,0,0,1-.14-1.17A3.61,3.61,0,0,1,122.2,159Zm.32,0c0-.08-.08,0-.1.06a2.77,2.77,0,0,1-.19-1.43c.1,0,0,.21.07.25.09-.23,0-.75.12-.93,0,1.33.35,2.23.44,3.47,0,.07,0,.07-.05.07Z" transform="translate(-1.44 -2.41)"/><path class="cls-1" d="M96.52,151.09a5.36,5.36,0,0,0,1.39.27A9.65,9.65,0,0,0,96.52,151.09Z" transform="translate(-1.44 -2.41)"/><path class="cls-1" d="M111.64,176.23c-.1,0-.34,0-.35,0S111.62,176.29,111.64,176.23Z" transform="translate(-1.44 -2.41)"/><path class="cls-1" d="M97.54,216a2.25,2.25,0,0,0,0,.72A1.12,1.12,0,0,0,97.54,216Z" transform="translate(-1.44 -2.41)"/><path class="cls-1" d="M97.88,219a3.57,3.57,0,0,0,0-1.14c-.1.05-.17-.06-.18.1.16.13,0,.42,0,.52S97.87,218.85,97.88,219Z" transform="translate(-1.44 -2.41)"/><path class="cls-1" d="M127.18,225.49a8,8,0,0,1-.14,1.07,18,18,0,0,1-.2,2.34,26.6,26.6,0,0,0,0-2.85c-.06-.13-.08.21-.15,0a4.92,4.92,0,0,0-.1-1.33c0,.12,0,.38-.07.49-.1-.72,0-1.82-.06-2.51a11,11,0,0,1-.33,1.56,5.71,5.71,0,0,1,0-.88c-.16-.09-.16.14-.28.12-.06-.42,0-.88-.05-1.26,0-.12-.07.1-.11,0,0-.59.12-1.29-.19-1.6-.11.11.06.54-.07.65a3,3,0,0,1-.06-.82c.08-.05.13.19.13,0a.59.59,0,0,0-.22-.54c-.15.07,0,.72-.13.77l0-6.63V214H125l-1,0c-.11,0,.12.09,0,.11h0c-.21,0-.14-.16-.48-.13,0,.08.13,0,.14.09-.52.08-.51-.14-1-.11,0,.06.15.08,0,.11a6.1,6.1,0,0,1-1.28,0c-.15,0,0-.14-.24-.11s.18.05,0,.09-.21-.1-.35-.11a2.79,2.79,0,0,0-.69.09.74.74,0,0,0-.17-.11c-2.68.11-5.36.11-8.14.07a77.29,77.29,0,0,1-10.86-.72c0-.08.23,0,.28-.09-.33-.05-.76-.11-1.23-.15l-.49,0,.49-.14a.47.47,0,0,0,.16-.08l-.16,0-.64-.15H100a.41.41,0,0,0,.2,0l-.2,0-1.45-.11v.15H99l-.16.59.14,0-.1,1v.11c0,.41.05.94-.18,1-.12-.41.1-.77,0-1.08l-.06-.22-.06.22a.35.35,0,0,1-.12.22c0,.13.08.27,0,.28a2.2,2.2,0,0,1,0-.49v-.7l-.06.7-.17,1.94c0,.31,0,.67-.09,1-.11.74-.09,1.72-.27,2.45-.1,0-.21-.07-.27-.07,0,.19-.09.6,0,.79s.13,0,0,.17.08.07,0,.21-.13,0-.09.1c0,.42-.06.59-.09,1,.05,0,.07-.16.11,0s-.08.14-.11.24a5.84,5.84,0,0,0-.07,1c.06,0,.07-.14.09,0s-.07.14-.11.21a18.57,18.57,0,0,1-.18,2,28.93,28.93,0,0,1,0-3.14c0-.24.08-.46.09-.69,0-1.49.25-3,.23-4.48A27.3,27.3,0,0,0,97.2,220c-.11,1.55-.32,3.1-.41,4.59-.06,0-.12-.07-.18.07a1.48,1.48,0,0,1-.23,1.07.76.76,0,0,0,0-.38,4.56,4.56,0,0,1-.27,1.55c0-.92,0-2-.07-3.07-.1,1.3-.38,2.68-.38,4.14,0,0,0,.1-.11.07,0,.16,0,.2,0,.31.17,0,.12.52.09.72-.07,0-.07-.06-.14,0,0,.29,0,.48,0,.76.22.11.12.56,0,.69a7.22,7.22,0,0,0,0,.83c0,.14-.11.14-.09.31a2.53,2.53,0,0,1,0,1.45c0,.13.16,0,.16.14l0,2.8,0,4.54H100c.83,0,1.62,0,2.37-.07.13,0,.14.07.28.07a.86.86,0,0,1,.3-.12c2.88,0,5.5-.12,8.12-.06h3.25c.42,0,.85-.06,1.31-.05.28,0,.55.07.85.08.84,0,2-.13,2.6-.17a10.12,10.12,0,0,0,2.71-.42,5.09,5.09,0,0,1-1.09-.06,5.71,5.71,0,0,0,.6-.12c-.1-.14.1-.12-.11-.23.08-.07.38-.07.56-.12s-.14-.08,0-.11c.35,0,.67-.1,1-.14a9.48,9.48,0,0,0,1.82-.28,19.39,19.39,0,0,1-2.36.09c-.19,0-.34.07-.53,0,.55-.1,1.24-.15,1.86-.22,0-.07-.24,0-.29-.08.11-.14.6-.08.72-.2-.37-.33.18-.48,0-.8.16,0,.13-.13.2-.2s-.18-.09-.22-.17a1.59,1.59,0,0,0-.42-1.13H125v-.48a.27.27,0,0,0,0,0c.09,0,0-.46.07-.52s.06.23.13.3c0-.12,0-.14.07-.08s.09.29.14.42.17-.36.31-.39.07.27.14.35c0-.13,0-.47.06-.38s.05.49.2.59c0-.07,0-.35.08-.41.09.33.15,0,.27.24,0-.19.1-.22.14-.37.09.25,0,.68.19.85a5,5,0,0,0,.13-1.11l0-2c0-.55.08-1.15.12-1.75l.06-.81C127.21,228.83,127.29,227.13,127.18,225.49Zm-30.5.37c0-.12,0-.28.07-.28S96.78,225.88,96.68,225.86Zm0-.48a.42.42,0,0,1,0-.21C96.8,225.17,96.79,225.41,96.71,225.37Zm.45,0c-.08,0,0-.17,0-.24S97.19,225.3,97.16,225.37Zm.45-1.93c-.06,0-.05-.16,0-.21S97.64,223.4,97.61,223.44Zm0-.52a.4.4,0,0,1,0-.31C97.7,222.62,97.71,223,97.61,222.93Zm.07-.83a.3.3,0,0,1,0-.28C97.77,221.83,97.77,222.14,97.68,222.1Zm0-.83c0-.18,0-.41.09-.41C97.81,221,97.84,221.26,97.72,221.27Zm5.34-7.15h-.67a.68.68,0,0,1-.23-.07C102.47,214.07,102.77,214.1,103.07,214.13Zm-2.17,0h-.31A.4.4,0,0,1,100.9,214.13ZM115,240.2a21.18,21.18,0,0,0-2.95,0,11.24,11.24,0,0,1-1.67,0c-.32,0-.63,0-.95,0a4.4,4.4,0,0,0-.69-.09h-3a25.87,25.87,0,0,1-3.85,0c.38,0,.93-.07,1.46-.08.33,0,.89.11,1-.12-.42-.1-1.11,0-1.55-.07a6.79,6.79,0,0,1,2.66,0c-.18.13-.6,0-.88.1.13.21.48.12.79.1a28,28,0,0,0,3.73-.08c-.15-.12-.61,0-.81-.11a13.3,13.3,0,0,1,3.05-.11,12.54,12.54,0,0,1,2,.12c-.38.11-1.28,0-1.57.13a23.21,23.21,0,0,0,3.37.08c.17,0,.08-.09.24-.1a6.57,6.57,0,0,0,1.64-.07,2.66,2.66,0,0,0,.94.11A16.91,16.91,0,0,1,115,240.2Zm-10.37-.68c-.06.06-.63.1-.65,0C104.13,239.44,104.34,239.55,104.6,239.52Zm-.35-.4c0-.07.49-.08.49,0A2.12,2.12,0,0,1,104.25,239.12Zm3.21.69s.2,0,.23,0S107.49,239.82,107.46,239.8Zm3.27-.29s.21,0,.21,0S110.72,239.59,110.73,239.52Zm4.07.29a.64.64,0,0,1,.24,0C115.07,239.87,114.82,239.86,114.79,239.8Z" transform="translate(-1.44 -2.41)"/><polygon class="cls-1" points="97.22 211.5 97.42 210.76 97.05 210.86 97.22 211.5"/><polygon class="cls-1" points="97.03 210.16 97.02 211.02 97.1 210.16 97.03 210.16"/></g></svg>